<svg width="24" height="24" viewBox="0 0 24 24" fill="none" xmlns="http://www.w3.org/2000/svg">
<path fill-rule="evenodd" clip-rule="evenodd" d="M2.01258 3.37638C2.37949 3.24284 2.78442 3.26052 3.1383 3.42553C3.4797 3.58473 3.7466 3.86848 3.8849 4.21776L6.55484 15.7875C6.63337 16.1278 6.93639 16.3688 7.28563 16.3688H19.8571C20.1799 16.3688 20.4665 16.1623 20.5686 15.856L23.7114 6.42743C23.7877 6.19872 23.7493 5.9473 23.6083 5.75172C23.4674 5.55615 23.241 5.44026 22.9999 5.44026H6.02849C5.91913 5.44026 5.81524 5.46366 5.72155 5.50574L5.3351 3.83113C5.32823 3.80134 5.31954 3.772 5.30908 3.74326C5.03947 3.00252 4.48665 2.39922 3.77222 2.06607C3.0578 1.73293 2.24029 1.69724 1.49955 1.96685C1.11031 2.10852 0.909625 2.5389 1.05129 2.92813C1.19296 3.31736 1.62335 3.51805 2.01258 3.37638ZM7.88226 14.8688L6.05259 6.94026H21.9593L19.3165 14.8688H7.88226ZM7.24991 22.4998C8.21641 22.4998 8.99991 21.7163 8.99991 20.7498C8.99991 19.7833 8.21641 18.9998 7.24991 18.9998C6.28342 18.9998 5.49991 19.7833 5.49991 20.7498C5.49991 21.7163 6.28342 22.4998 7.24991 22.4998ZM19.7499 22.4998C20.7164 22.4998 21.4999 21.7163 21.4999 20.7498C21.4999 19.7833 20.7164 18.9998 19.7499 18.9998C18.7834 18.9998 17.9999 19.7833 17.9999 20.7498C17.9999 21.7163 18.7834 22.4998 19.7499 22.4998Z" fill="#555859"/>
</svg>
