<svg width="24" height="24" viewBox="0 0 24 24" fill="none" xmlns="http://www.w3.org/2000/svg">
<path fill-rule="evenodd" clip-rule="evenodd" d="M7.85156 6.10145C7.85156 3.69821 9.79977 1.75 12.203 1.75C14.6063 1.75 16.5545 3.69821 16.5545 6.10145C16.5545 8.50469 14.6063 10.4529 12.203 10.4529C9.79977 10.4529 7.85156 8.50469 7.85156 6.10145ZM12.203 0.25C8.97135 0.25 6.35156 2.86978 6.35156 6.10145C6.35156 9.33312 8.97135 11.9529 12.203 11.9529C15.4347 11.9529 18.0545 9.33312 18.0545 6.10145C18.0545 2.86978 15.4347 0.25 12.203 0.25ZM7.10145 14.5977C5.54955 14.5977 4.06121 15.2141 2.96385 16.3115C1.86649 17.4089 1.25 18.8972 1.25 20.4491V22.9998C1.25 23.414 1.58579 23.7498 2 23.7498C2.41421 23.7498 2.75 23.414 2.75 22.9998V20.4491C2.75 19.295 3.20845 18.1882 4.02451 17.3722C4.84057 16.5561 5.94737 16.0977 7.10145 16.0977H17.3043C18.4584 16.0977 19.5652 16.5561 20.3813 17.3722C21.1973 18.1882 21.6558 19.295 21.6558 20.4491V22.9998C21.6558 23.414 21.9916 23.7498 22.4058 23.7498C22.82 23.7498 23.1558 23.414 23.1558 22.9998V20.4491C23.1558 18.8972 22.5393 17.4089 21.4419 16.3115C20.3446 15.2141 18.8563 14.5977 17.3043 14.5977H7.10145Z" fill="#555859"/>
</svg>
