<?xml version="1.0" encoding="utf-8"?>
<svg xmlns="http://www.w3.org/2000/svg" xmlns:xlink="http://www.w3.org/1999/xlink" style="margin: auto; background: rgb(255, 255, 255); display: block; shape-rendering: auto;" width="60px" height="60px" viewBox="0 0 100 100" preserveAspectRatio="xMidYMid">
<g transform="rotate(0 50 50)">
  <rect x="47" y="23" rx="3" ry="4.48" width="6" height="16" fill="#8a8889">
    <animate attributeName="opacity" values="1;0" keyTimes="0;1" dur="0.5617977528089888s" begin="-0.5107252298263534s" repeatCount="indefinite"></animate>
  </rect>
</g><g transform="rotate(32.72727272727273 50 50)">
  <rect x="47" y="23" rx="3" ry="4.48" width="6" height="16" fill="#8a8889">
    <animate attributeName="opacity" values="1;0" keyTimes="0;1" dur="0.5617977528089888s" begin="-0.45965270684371806s" repeatCount="indefinite"></animate>
  </rect>
</g><g transform="rotate(65.45454545454545 50 50)">
  <rect x="47" y="23" rx="3" ry="4.48" width="6" height="16" fill="#8a8889">
    <animate attributeName="opacity" values="1;0" keyTimes="0;1" dur="0.5617977528089888s" begin="-0.4085801838610827s" repeatCount="indefinite"></animate>
  </rect>
</g><g transform="rotate(98.18181818181819 50 50)">
  <rect x="47" y="23" rx="3" ry="4.48" width="6" height="16" fill="#8a8889">
    <animate attributeName="opacity" values="1;0" keyTimes="0;1" dur="0.5617977528089888s" begin="-0.3575076608784474s" repeatCount="indefinite"></animate>
  </rect>
</g><g transform="rotate(130.9090909090909 50 50)">
  <rect x="47" y="23" rx="3" ry="4.48" width="6" height="16" fill="#8a8889">
    <animate attributeName="opacity" values="1;0" keyTimes="0;1" dur="0.5617977528089888s" begin="-0.306435137895812s" repeatCount="indefinite"></animate>
  </rect>
</g><g transform="rotate(163.63636363636363 50 50)">
  <rect x="47" y="23" rx="3" ry="4.48" width="6" height="16" fill="#8a8889">
    <animate attributeName="opacity" values="1;0" keyTimes="0;1" dur="0.5617977528089888s" begin="-0.2553626149131767s" repeatCount="indefinite"></animate>
  </rect>
</g><g transform="rotate(196.36363636363637 50 50)">
  <rect x="47" y="23" rx="3" ry="4.48" width="6" height="16" fill="#8a8889">
    <animate attributeName="opacity" values="1;0" keyTimes="0;1" dur="0.5617977528089888s" begin="-0.20429009193054135s" repeatCount="indefinite"></animate>
  </rect>
</g><g transform="rotate(229.0909090909091 50 50)">
  <rect x="47" y="23" rx="3" ry="4.48" width="6" height="16" fill="#8a8889">
    <animate attributeName="opacity" values="1;0" keyTimes="0;1" dur="0.5617977528089888s" begin="-0.153217568947906s" repeatCount="indefinite"></animate>
  </rect>
</g><g transform="rotate(261.8181818181818 50 50)">
  <rect x="47" y="23" rx="3" ry="4.48" width="6" height="16" fill="#8a8889">
    <animate attributeName="opacity" values="1;0" keyTimes="0;1" dur="0.5617977528089888s" begin="-0.10214504596527067s" repeatCount="indefinite"></animate>
  </rect>
</g><g transform="rotate(294.54545454545456 50 50)">
  <rect x="47" y="23" rx="3" ry="4.48" width="6" height="16" fill="#8a8889">
    <animate attributeName="opacity" values="1;0" keyTimes="0;1" dur="0.5617977528089888s" begin="-0.051072522982635336s" repeatCount="indefinite"></animate>
  </rect>
</g><g transform="rotate(327.27272727272725 50 50)">
  <rect x="47" y="23" rx="3" ry="4.48" width="6" height="16" fill="#8a8889">
    <animate attributeName="opacity" values="1;0" keyTimes="0;1" dur="0.5617977528089888s" begin="0s" repeatCount="indefinite"></animate>
  </rect>
</g></svg>