<svg width="16" height="16" viewBox="0 0 16 16" fill="none" xmlns="http://www.w3.org/2000/svg">
<path fill-rule="evenodd" clip-rule="evenodd" d="M11.0841 10.0704C11.3641 10.3503 11.3641 10.8042 11.0841 11.0841C10.9442 11.2241 10.7607 11.2941 10.5773 11.2941C10.3939 11.2941 10.2104 11.2241 10.0705 11.0841L8.00006 9.01359L5.92958 11.0841C5.78969 11.2241 5.60606 11.2941 5.42268 11.2941C5.2393 11.2941 5.0558 11.2241 4.9159 11.0841C4.63588 10.8042 4.63588 10.3503 4.9159 10.0704L6.98626 7.9999L4.9159 5.92951C4.63588 5.64959 4.63588 5.19573 4.9159 4.91582C5.1957 4.6359 5.64979 4.6359 5.92958 4.91582L8.00006 6.98633L10.0705 4.91582C10.3502 4.6359 10.8043 4.6359 11.0841 4.91582C11.3641 5.19573 11.3641 5.64959 11.0841 5.92951L9.01362 7.9999L11.0841 10.0704ZM0 7.99981C0 12.4183 3.58174 16 7.99994 16C12.4183 16 16 12.4183 16 7.99981C16 3.58168 12.4183 0 7.99994 0C3.58174 0 0 3.58168 0 7.99981Z" fill="#125CE0"/>
</svg>