<svg xmlns="http://www.w3.org/2000/svg" width="21" height="21" viewBox="0 0 21 21" aria-hidden="true"><path d="M2.03849 0.769828L10.5 8.89086L18.9616 0.547721C19.262 0.25152 19.9743 0.473626 20.2747 0.769828C20.5751 1.06603 20.5751 1.76844 20.2747 2.06464L12.0385 10.4078L20.2747 18.751C20.5751 19.0472 20.5751 19.7496 20.2747 20.0458C19.9743 20.342 19.262 20.5642 18.9616 20.268L10.5 11.9247L2.03849 20.268C1.73808 20.5642 1.02573 20.342 0.72533 20.0458C0.424927 19.7496 0.424927 18.7989 0.72533 18.5027L8.96156 10.4078L0.725275 2.06457C0.424872 1.76837 0.424927 1.06603 0.72533 0.769828C1.02573 0.473626 1.73808 0.473626 2.03849 0.769828Z" fill="#747474"></path></svg>