<svg width="24" height="24" viewBox="0 0 24 24" fill="none" xmlns="http://www.w3.org/2000/svg">
<mask id="mask0_10683_13425" style="mask-type:alpha" maskUnits="userSpaceOnUse" x="0" y="0" width="24" height="24">
<rect width="24" height="24" fill="#D9D9D9"/>
</mask>
<g mask="url(#mask0_10683_13425)">
<path d="M5.64942 21C5.24942 21 4.90762 20.8584 4.62402 20.5752C4.34082 20.2916 4.19922 19.9498 4.19922 19.5498V5.44984C4.19922 5.04984 4.34082 4.70824 4.62402 4.42504C4.90762 4.14184 5.24942 4.00024 5.64942 4.00024H12.1492V4.84984H5.64942C5.49942 4.84984 5.36182 4.91244 5.23662 5.03764C5.11182 5.16244 5.04942 5.29984 5.04942 5.44984V19.5498C5.04942 19.6998 5.11182 19.8374 5.23662 19.9626C5.36182 20.0874 5.49942 20.1498 5.64942 20.1498H12.1492V21H5.64942ZM16.474 15.8502L15.8494 15.2502L18.1744 12.9252H9.34902V12.075H18.1744L15.8494 9.75004L16.4494 9.15004L19.7992 12.4998L16.474 15.8502Z" fill="#125CE0"/>
</g>
</svg>
