<svg width="113" height="48" viewBox="0 0 113 48" fill="none" xmlns="http://www.w3.org/2000/svg">
<path d="M58.4427 22.855V3.90951C58.3849 1.8218 56.4533 -0.0172276 54.2558 0.000121772H3.66505C1.76819 -0.0172276 0.0101217 1.8218 0.0274711 3.90951V22.8781C0.183615 24.96 1.69879 26.7759 3.85589 26.7759H54.2558C56.5459 26.8974 58.3849 25.1162 58.4427 22.855ZM54.8977 23.2714L50.6355 23.2598L43.2331 8.62275L40.2837 15.3601L37.9531 20.5128C37.9242 20.588 37.9011 20.6748 37.8664 20.7557C37.7392 21.0333 37.6929 21.5075 37.6929 21.5075C35.8018 22.7914 33.824 23.4044 31.4876 23.4391C27.4452 23.3986 22.8014 21.7042 21.0028 16.829C20.332 15.0651 20.2626 13.2261 20.6905 11.4738C19.0192 14.001 14.7976 15.4931 11.3045 14.7297L12.1258 13.8969C15.3296 14.4753 17.7759 12.0059 17.7759 9.14323C17.7759 5.59239 15.185 4.1177 10.1711 4.32589V20.108C10.1711 21.0854 10.1711 21.9355 10.7783 23.2367H6.01878C6.66071 21.9355 6.62022 21.0854 6.62022 20.108V6.25167C6.62022 5.3495 6.66071 4.51674 6.01878 3.20975H10.6858C11.5532 3.20975 15.9253 3.14614 17.6486 3.86324C20.4939 5.05456 21.6216 6.86468 21.4134 9.496C23.0963 6.03191 26.7975 3.37168 31.4529 3.30806C33.5522 3.34276 35.7903 3.82276 38.0052 5.04878L38.2712 7.73215C37.4095 6.91673 34.784 4.67288 31.4529 4.67288C25.4269 4.67288 23.5474 9.98178 23.7787 13.2666C24.1893 18.7952 28.197 22.2246 31.719 22.1495C33.6158 22.1263 35.0269 21.7909 36.3339 20.9639L44.0254 3.84011H44.6153L53.1627 20.7384C54.0938 22.3634 53.6196 21.8372 54.8977 23.2772" fill="#231F20"/>
<path d="M72.4612 12.7577C72.3687 10.5197 70.6627 9.5192 68.6212 9.5192C67.0251 9.5192 65.1514 10.1496 65.1514 12.0696C65.1514 13.6657 66.9673 14.244 68.1933 14.5621L70.5875 15.1057C72.6289 15.4238 74.7687 16.6267 74.7687 19.2001C74.7687 22.404 71.6111 23.6416 68.8815 23.6416C65.4694 23.6416 63.1446 22.0339 62.8555 18.431H64.6424C64.787 20.8599 66.5798 22.1206 68.9682 22.1206C70.6453 22.1206 72.9759 21.3804 72.9759 19.3158C72.9759 17.5982 71.3798 17.0257 69.7605 16.6267L67.453 16.1062C65.1224 15.4758 63.3586 14.6777 63.3586 12.1563C63.3586 9.14909 66.2964 8.00403 68.8815 8.00403C71.8135 8.00403 74.1441 9.5539 74.254 12.7577H72.467H72.4612Z" fill="#231F20"/>
<path d="M87.2715 8.43198H89.6541L83.3968 13.897L90.0763 23.2078H87.8382L82.032 15.1635L79.1346 17.5924V23.2078H77.3477V2.76453H79.1346V15.5915L87.2715 8.43198Z" fill="#231F20"/>
<path d="M91.5938 2.76453H93.3865V5.6503H91.5938V2.76453ZM91.5938 8.43198H93.3865V23.2078H91.5938V8.43198Z" fill="#231F20"/>
<path d="M96.793 8.43198H98.5857V10.9823H98.6378C99.2971 9.20692 101.252 8.00403 103.334 8.00403C107.457 8.00403 108.706 10.1785 108.706 13.7004V23.2078H106.913V13.9838C106.913 11.4392 106.092 9.5192 103.195 9.5192C100.298 9.5192 98.6436 11.6937 98.5915 14.5794V23.2078H96.7988V8.43198H96.793Z" fill="#231F20"/>
<path d="M110.465 5.78327C109.621 5.78327 109.02 5.14134 109.02 4.29701C109.02 3.40641 109.685 2.81653 110.465 2.81653C111.246 2.81653 111.905 3.40641 111.905 4.29701C111.905 5.18761 111.246 5.78327 110.465 5.78327ZM110.465 3.07099C109.823 3.07099 109.326 3.57412 109.326 4.29701C109.326 4.96785 109.766 5.52881 110.465 5.52881C111.096 5.52881 111.593 5.03146 111.593 4.29701C111.593 3.56255 111.09 3.07099 110.465 3.07099ZM110.176 5.10086H109.91V3.45845H110.523C110.916 3.45845 111.119 3.59147 111.119 3.92689C111.119 4.22183 110.94 4.34905 110.697 4.37797L111.148 5.09508H110.847L110.425 4.39532H110.176V5.09508V5.10086ZM110.477 4.16399C110.679 4.16399 110.847 4.14665 110.847 3.90954C110.847 3.71869 110.656 3.684 110.494 3.684H110.176V4.16399H110.477Z" fill="#231F20"/>
<path d="M106.589 37.2954C105.021 37.2954 104.027 38.1802 104.027 39.4005C104.027 40.6901 105.108 41.0487 106.357 41.4419C107.468 41.7889 108.231 42.0549 108.231 42.8819C108.231 43.6164 107.589 44.1426 106.496 44.1426C105.403 44.1426 104.541 43.6453 103.975 43.0323V44.1542C104.68 44.7499 105.594 45.0274 106.513 45.0274C108.138 45.0274 109.162 44.1831 109.162 42.8646C109.162 41.3783 107.861 41.0313 106.751 40.6843C105.681 40.3547 104.975 40.1002 104.975 39.3253C104.975 38.6429 105.559 38.1745 106.583 38.1745C107.473 38.1745 108.26 38.5099 108.786 38.9783V37.9373C108.277 37.5383 107.427 37.2839 106.594 37.2839M100.453 35.6877H99.539V37.4342H98.3882V38.2785H99.5101V42.373C99.5101 44.0501 100.551 44.9349 102.02 44.9349C102.407 44.9349 102.725 44.8771 102.812 44.8655V44.0212C102.575 44.0617 102.355 44.0906 102.147 44.0906C101.164 44.0906 100.453 43.5759 100.453 42.3267V38.2785H102.627V37.4342H100.453V35.6877ZM94.2417 44.8655H95.1843V40.4125C95.1843 38.9263 96.2368 38.2496 97.2662 38.2496C97.4339 38.2496 97.6017 38.2612 97.752 38.2901V37.3764C97.6132 37.3648 97.4629 37.3475 97.2778 37.3475C96.6127 37.3475 95.6296 37.654 95.1149 38.6371H95.0976L94.9877 37.4342H94.2417V44.8655ZM86.5848 40.6785C86.7525 39.1229 87.8745 38.1513 89.1352 38.1513C90.2455 38.1513 91.3096 38.9263 91.3559 40.6785H86.5848ZM92.2696 40.9966C92.2696 38.5561 90.8701 37.2781 89.1525 37.2781C87.2904 37.2781 85.6306 38.747 85.6306 41.1759C85.6306 43.6048 87.059 45.0159 89.2624 45.0159C90.234 45.0159 91.1072 44.7267 91.8706 44.1311V43.0785C91.0667 43.813 90.1646 44.1311 89.3029 44.1311C87.7761 44.1311 86.7236 43.119 86.5732 41.494H92.2465C92.258 41.3436 92.2754 41.1932 92.2754 40.9966M80.5877 44.1195C79.1593 44.1195 78.02 42.9108 78.02 41.1528C78.02 39.3947 79.1593 38.186 80.5877 38.186C82.0162 38.186 83.167 39.3773 83.167 41.1412C83.167 42.905 82.0277 44.1253 80.5877 44.1253M77.1063 47.786H78.0489V43.5007C78.5636 44.4723 79.6566 45.0274 80.6976 45.0274C82.473 45.0274 84.1096 43.547 84.1096 41.147C84.1096 38.747 82.473 37.2954 80.6976 37.2954C79.6451 37.2954 78.5752 37.8101 77.9795 38.9031L77.8581 37.4516H77.1121V47.7976L77.1063 47.786ZM75.4118 37.44H74.3709L72.3352 40.4183H72.3063L70.2706 37.44H69.2066L71.7858 41.1412L69.1776 44.8713H70.2302L72.3236 41.8352H72.3352L74.4171 44.8713H75.4986L72.8615 41.1007L75.4118 37.44ZM62.5155 40.6843C62.6832 39.1287 63.8051 38.1571 65.0658 38.1571C66.1762 38.1571 67.2461 38.932 67.2866 40.6843H62.5155ZM68.2003 41.0024C68.2003 38.5619 66.8008 37.2839 65.0832 37.2839C63.2268 37.2839 61.5613 38.7528 61.5613 41.1817C61.5613 43.6106 62.9897 45.0217 65.1931 45.0217C66.1646 45.0217 67.0379 44.7325 67.8013 44.1368V43.0843C66.9974 43.8188 66.0952 44.1368 65.2393 44.1368C63.7126 44.1368 62.6601 43.1248 62.5039 41.4997H68.1772C68.1887 41.3494 68.2061 41.199 68.2061 41.0024M50.4982 40.6843C50.6659 39.1287 51.7878 38.1571 53.0485 38.1571C54.1589 38.1571 55.2288 38.932 55.2692 40.6843H50.4982ZM56.183 41.0024C56.183 38.5619 54.7835 37.2839 53.0659 37.2839C51.2095 37.2839 49.544 38.7528 49.544 41.1817C49.544 43.6106 50.9724 45.0217 53.1758 45.0217C54.1473 45.0217 55.0206 44.7325 55.7839 44.1368V43.0843C54.9801 43.8188 54.0779 44.1368 53.2162 44.1368C51.6895 44.1368 50.637 43.1248 50.4866 41.4997H56.1598C56.1714 41.3494 56.1888 41.199 56.1888 41.0024M42.7083 33.8024H41.7657V44.8655H42.7083V40.1928C42.7083 38.8048 43.6914 38.1802 44.7787 38.1802C46.0567 38.1802 46.6813 38.8858 46.6813 40.3316V44.8655H47.624V39.9672C47.624 38.1918 46.5599 37.2781 44.9059 37.2781C43.9748 37.2781 43.1594 37.706 42.7257 38.3884H42.7083V33.7966V33.8024ZM37.8158 35.6877H36.9021V37.4342H35.7512V38.2785H36.8731V42.373C36.8731 44.0501 37.9083 44.9349 39.383 44.9349C39.7705 44.9349 40.0886 44.8771 40.1753 44.8655V44.0212C39.9382 44.0617 39.7184 44.0906 39.5103 44.0906C38.5271 44.0906 37.8158 43.5759 37.8158 42.3267V38.2785H39.9902V37.4342H37.8158V35.6877ZM28.9965 35.6877H28.0828V37.4342H26.932V38.2785H28.0539V42.373C28.0539 44.0501 29.0949 44.9349 30.5638 44.9349C30.9512 44.9349 31.2693 44.8771 31.3561 44.8655V44.0212C31.1189 44.0617 30.8992 44.0906 30.691 44.0906C29.7079 44.0906 28.9965 43.5759 28.9965 42.3267V38.2785H31.171V37.4342H28.9965V35.6877ZM23.2828 37.2839C21.7156 37.2839 20.7209 38.1687 20.7209 39.3889C20.7209 40.6785 21.8023 41.0371 23.0515 41.4303C24.1619 41.7773 24.9252 42.0434 24.9252 42.8703C24.9252 43.6048 24.2891 44.1311 23.1903 44.1311C22.0915 44.1311 21.2356 43.6337 20.6689 43.0207V44.1426C21.3744 44.7383 22.2881 45.0159 23.2076 45.0159C24.8327 45.0159 25.8563 44.1715 25.8563 42.853C25.8563 41.3667 24.5551 41.0197 23.4448 40.6728C22.3749 40.3431 21.6693 40.0887 21.6693 39.3137C21.6693 38.6313 22.2534 38.1629 23.277 38.1629C24.1676 38.1629 24.9541 38.4983 25.4804 38.9667V37.9258C24.9657 37.5267 24.1214 37.2723 23.2886 37.2723M15.7301 45.0101C17.5633 45.0101 18.6968 43.8072 18.6968 42.0549V37.4226H17.7542V42.0838C17.7542 43.3446 16.9503 44.1079 15.7301 44.1079C14.5098 44.1079 13.7754 43.3446 13.7754 42.0954V37.4226H12.8327V42.0549C12.8327 43.8014 13.9142 45.0101 15.7301 45.0101ZM7.92287 44.8597H8.86552V40.4067C8.86552 38.9205 9.91804 38.2438 10.9474 38.2438C11.1151 38.2438 11.2771 38.2554 11.4332 38.2843V37.3706C11.2944 37.359 11.1441 37.3417 10.9648 37.3417C10.2997 37.3417 9.3166 37.6482 8.8019 38.6313H8.79034L8.68046 37.4284H7.93444V44.8597H7.92287ZM3.35999 44.8597H4.3142V35.4564H7.6395V34.56H0V35.4564H3.32529V44.8597H3.35999Z" fill="#231F20"/>
</svg>
