<svg width="19" height="19" viewBox="0 0 19 19" fill="none" xmlns="http://www.w3.org/2000/svg">
<path d="M10.4748 17.7498C10.3084 17.9334 10.1044 18.0252 9.8628 18.0252C9.6208 18.0252 9.4166 17.9334 9.2502 17.7498L0.2748 8.775C0.1748 8.6918 0.104 8.596 0.0624001 8.4876C0.0208001 8.3792 0 8.2584 0 8.1252V0.8502C0 0.6166 0.0833999 0.4166 0.2502 0.2502C0.4166 0.0833999 0.6166 0 0.8502 0H8.1252C8.2416 0 8.354 0.0208001 8.4624 0.0624001C8.5708 0.104 8.675 0.1666 8.775 0.2502L17.7252 9.1998C17.9084 9.3834 18.0042 9.6002 18.0126 9.8502C18.021 10.1002 17.9334 10.3084 17.7498 10.4748L10.4748 17.7498ZM9.8748 17.175L17.175 9.8748L8.1498 0.8502H0.8502V8.1252L9.8748 17.175ZM3.4002 4.3248C3.6502 4.3248 3.8668 4.2332 4.05 4.05C4.2332 3.8668 4.3248 3.6418 4.3248 3.375C4.3248 3.125 4.2332 2.9084 4.05 2.7252C3.8668 2.5416 3.6502 2.4498 3.4002 2.4498C3.1334 2.4498 2.9084 2.5374 2.7252 2.7126C2.5416 2.8874 2.4498 3.1082 2.4498 3.375C2.4498 3.625 2.5416 3.8458 2.7252 4.0374C2.9084 4.229 3.1334 4.3248 3.4002 4.3248Z" fill="white"/>
</svg>
