<svg width="24" height="24" viewBox="0 0 24 24" fill="none" xmlns="http://www.w3.org/2000/svg">
<path fill-rule="evenodd" clip-rule="evenodd" d="M12.837 8.26351C12.677 8.09551 12.453 7.99951 12.225 7.99951C11.992 7.99951 11.775 8.09351 11.612 8.26351L5.247 14.9325C5.088 15.0995 5 15.3225 5 15.5585C5 15.7945 5.088 16.0175 5.247 16.1845C5.573 16.5265 6.146 16.5265 6.472 16.1845L12.225 10.1565L17.977 16.1845C18.14 16.3555 18.358 16.4495 18.589 16.4495C18.82 16.4495 19.038 16.3555 19.201 16.1845C19.52 15.8505 19.52 15.2665 19.201 14.9325L12.837 8.26351Z" fill="#FFFFFF"/>
</svg>
