<svg width="24" height="24" viewBox="0 0 24 24" fill="none" xmlns="http://www.w3.org/2000/svg">
<mask id="mask0_10369_2729" style="mask-type:alpha" maskUnits="userSpaceOnUse" x="0" y="0" width="24" height="24">
<rect width="24" height="24" fill="#D9D9D9"/>
</mask>
<g mask="url(#mask0_10369_2729)">
<path d="M2.72461 20.1502V3.15039H11.6496V7.17519H21.2742V20.1502H2.72461ZM3.57421 19.3006H6.77461V16.1002H3.57421V19.3006ZM3.57421 15.2752H6.77461V12.0754H3.57421V15.2752ZM3.57421 11.2252H6.77461V8.02539H3.57421V11.2252ZM3.57421 7.17519H6.77461V4.00059H3.57421V7.17519ZM7.62421 19.3006H10.7994V16.1002H7.62421V19.3006ZM7.62421 15.2752H10.7994V12.0754H7.62421V15.2752ZM7.62421 11.2252H10.7994V8.02539H7.62421V11.2252ZM7.62421 7.17519H10.7994V4.00059H7.62421V7.17519ZM11.6496 19.3006H20.4246V8.02539H11.6496V11.2252H14.0496V12.0754H11.6496V15.2752H14.0496V16.1002H11.6496V19.3006ZM16.6242 12.0754V11.2252H17.4744V12.0754H16.6242ZM16.6242 16.1002V15.2752H17.4744V16.1002H16.6242Z" fill="#125CE0"/>
</g>
</svg>
