<svg width="196" height="32" viewBox="0 0 196 32" fill="none" xmlns="http://www.w3.org/2000/svg">
<g clip-path="url(#clip0_5691_13516)">
<path d="M18.4525 15.0221H17.998L17.0568 19.0393H11.3822L13.7053 8.95265H19.0677C20.6562 8.78737 20.5598 7.35495 20.5598 7.35495C20.5598 7.35495 20.243 5.99139 18.5857 5.98221L14.3894 5.96385L15.73 0H18.2918C26.3354 0.0964132 26.689 7.13458 26.689 7.13458C26.689 7.13458 26.7854 14.8522 18.4525 15.0221ZM0.000868514 7.13458C0.000868514 7.13458 0.198286 0.0964132 8.23731 0H14.27L12.9202 5.96385L7.94348 5.98221C6.28609 5.99598 5.96931 7.35495 5.96931 7.35495C5.96931 7.35495 5.87289 8.78737 7.46141 8.95265H12.2408L10.868 15.0175L8.07662 15.0267C-0.256233 14.8522 0.000868514 7.13458 0.000868514 7.13458Z" fill="white"/>
<path d="M41.3716 9.24195C39.6362 8.74152 38.3736 8.1309 37.5794 7.40091C36.7897 6.67552 36.3949 5.77566 36.3949 4.70593C36.3949 3.49847 36.8769 2.49761 37.8456 1.70794C38.8144 0.918272 40.0677 0.523438 41.6149 0.523438C42.6709 0.523438 43.6075 0.725446 44.4339 1.13405C45.2603 1.54266 45.8984 2.10278 46.353 2.81899C46.8075 3.5352 47.0325 4.32028 47.0325 5.16964H44.9986C44.9986 4.23764 44.7048 3.50766 44.1125 2.97509C43.5203 2.44252 42.6893 2.17624 41.6149 2.17624C40.6187 2.17624 39.8382 2.39661 39.2781 2.83735C38.718 3.2781 38.4379 3.88872 38.4379 4.6692C38.4379 5.29819 38.7042 5.82616 39.2322 6.25773C39.7647 6.68929 40.6646 7.08872 41.9409 7.44682C43.2172 7.80493 44.2135 8.19976 44.9343 8.63592C45.6551 9.06748 46.1877 9.5725 46.5366 10.151C46.8855 10.7295 47.06 11.4044 47.06 12.1848C47.06 13.429 46.5733 14.4253 45.6046 15.1737C44.6359 15.922 43.3366 16.2985 41.716 16.2985C40.66 16.2985 39.6775 16.0965 38.7639 15.6924C37.8502 15.2884 37.1432 14.7329 36.652 14.0305C36.1561 13.328 35.9082 12.5292 35.9082 11.6385H37.9421C37.9421 12.5659 38.2864 13.3005 38.9705 13.8376C39.6545 14.3748 40.5728 14.6457 41.716 14.6457C42.7857 14.6457 43.6029 14.4299 44.1722 13.9937C44.7415 13.5576 45.0261 12.9653 45.0261 12.2124C45.0261 11.4594 44.7644 10.881 44.2365 10.4678C43.7085 10.0546 42.7535 9.65055 41.367 9.25113" fill="white"/>
<path d="M57.0138 8.94786L55.136 10.8991V16.0824H53.1113V0.734375H55.136V8.32347L61.9584 0.734375H64.4054L58.3636 7.51085L64.8783 16.0824H62.4542L57.0138 8.94786Z" fill="white"/>
<path d="M72.2786 0.734375H70.2539V16.087H72.2786V0.734375Z" fill="white"/>
<path d="M79.3809 16.0827V0.96875H82.8976L88.1682 14.9395H88.4483V0.96875H90.2388V16.0827H86.722L81.4744 2.09357H81.1714V16.0827H79.3809Z" fill="white"/>
<path d="M83.0817 31.8804H82.0257C81.966 31.6784 81.9293 31.3892 81.9109 31.0357C81.5207 31.5912 80.8091 31.9998 79.6429 31.9998C77.4438 31.9998 76.2363 30.3332 76.2363 28.1754C76.2363 25.8982 77.5356 24.1812 79.8954 24.1812C81.7824 24.1812 82.921 25.2325 83.1184 26.5502H81.6952C81.5023 25.9258 81.0294 25.3152 79.8771 25.3152C78.2472 25.3152 77.7147 26.6558 77.7147 28.1111C77.7147 29.5665 78.2886 30.852 79.8679 30.852C81.4472 30.852 81.6906 29.8236 81.6906 28.9375V28.8641H79.8633V27.6842H83.0863V31.8804H83.0817Z" fill="white"/>
<path d="M88.1923 27.7853H89.588C90.0471 27.7853 90.4006 27.6705 90.6623 27.441C90.9194 27.2114 91.0479 26.8946 91.0479 26.4952C91.0479 26.0958 90.9286 25.7514 90.6898 25.5265C90.4511 25.2969 90.0976 25.1776 89.6247 25.173H88.1923V27.7899V27.7853ZM89.7027 28.878H88.1923V31.8806H86.8379V24.0757H89.5834C90.4832 24.0757 91.1765 24.2777 91.6677 24.6817C92.159 25.0857 92.4023 25.6688 92.4023 26.4355C92.4023 26.9589 92.2784 27.3951 92.0258 27.7486C91.7733 28.1021 91.4244 28.373 90.9745 28.5612L92.7283 31.8117V31.8806H91.2775L89.7119 28.878H89.7027Z" fill="white"/>
<path d="M100.752 27.7762C100.752 26.9131 100.587 26.2474 100.261 25.7883C99.9347 25.3292 99.471 25.095 98.8695 25.095C98.2681 25.095 97.8274 25.3246 97.4968 25.7837C97.1662 26.2428 96.9964 26.8902 96.9918 27.7303V28.1803C96.9918 29.0388 97.1571 29.6999 97.4922 30.1682C97.8274 30.6365 98.2911 30.8706 98.8833 30.8706C99.4756 30.8706 99.9439 30.6411 100.27 30.1866C100.591 29.7275 100.756 29.0618 100.756 28.1803V27.7717L100.752 27.7762ZM102.106 28.1849C102.106 28.947 101.973 29.6219 101.711 30.1958C101.445 30.7742 101.069 31.215 100.577 31.5272C100.086 31.8348 99.5215 31.9909 98.8787 31.9909C98.236 31.9909 97.6804 31.8348 97.1892 31.5272C96.6934 31.2196 96.3123 30.7788 96.0414 30.2049C95.7705 29.6356 95.6328 28.9745 95.6328 28.2262V27.7854C95.6328 27.0233 95.7659 26.353 96.0368 25.7699C96.3077 25.1869 96.6888 24.7415 97.18 24.4339C97.6713 24.1263 98.236 23.9702 98.8695 23.9702C99.5031 23.9702 100.068 24.1217 100.559 24.4293C101.05 24.7369 101.431 25.1731 101.698 25.747C101.964 26.3209 102.102 26.9866 102.106 27.7487V28.1849Z" fill="white"/>
<path d="M111.362 24.0756V29.2911C111.362 30.1221 111.096 30.7786 110.568 31.2607C110.035 31.7473 109.328 31.9861 108.447 31.9861C107.565 31.9861 106.844 31.7473 106.321 31.2699C105.798 30.7924 105.531 30.1313 105.531 29.2819V24.071H106.881V29.2911C106.881 29.8145 107.014 30.2093 107.276 30.4848C107.542 30.7602 107.928 30.898 108.447 30.898C109.489 30.898 110.012 30.347 110.012 29.2452V24.0664H111.362V24.0756Z" fill="white"/>
<path d="M116.362 27.8911H117.992C118.474 27.8911 118.841 27.7763 119.098 27.5513C119.351 27.3264 119.48 26.9958 119.48 26.5688C119.48 26.1419 119.351 25.8113 119.094 25.5588C118.837 25.3063 118.483 25.1777 118.033 25.1686H116.367V27.8911H116.362ZM116.362 28.9838V31.8762H115.008V24.0713H117.992C118.864 24.0713 119.558 24.2963 120.072 24.7508C120.586 25.2053 120.839 25.8067 120.839 26.5551C120.839 27.3034 120.586 27.914 120.086 28.341C119.585 28.768 118.883 28.9792 117.978 28.9792H116.367L116.362 28.9838Z" fill="white"/>
<path d="M195.834 28.5796H125.59V29.2407H195.834V28.5796Z" fill="white"/>
<path d="M71.406 28.5796H1.16211V29.2407H71.406V28.5796Z" fill="white"/>
<path d="M117.492 16.11H115.459V9.01213H107.718V16.11H105.693V0.757324H107.718V7.35933H115.459V0.757324H117.492V16.11Z" fill="white"/>
<path d="M132.789 9.01213H126.136V14.4526H133.863V16.11H124.111V0.757324H133.757V2.41471H126.136V7.35933H132.789V9.01213Z" fill="white"/>
<path d="M142.064 10.4354H147.284L144.667 3.25489L142.064 10.4354ZM147.885 12.0928H141.453L140.007 16.11H137.918L143.781 0.757324H145.553L151.425 16.11H149.35L147.885 12.0928Z" fill="white"/>
<path d="M158.55 14.4526H165.822V16.11H156.512V0.757324H158.55V14.4526Z" fill="white"/>
<path d="M178.86 2.41012H173.929V16.11H171.914V2.41012H166.992V0.757324H178.86V2.41012Z" fill="white"/>
<path d="M195.963 16.11H193.925V9.01213H186.189V16.11H184.164V0.757324H186.189V7.35933H193.925V0.757324H195.963V16.11Z" fill="white"/>
</g>
<defs>
<clipPath id="clip0_5691_13516">
<rect width="195.962" height="32" fill="white"/>
</clipPath>
</defs>
</svg>
